<svg xmlns="http://www.w3.org/2000/svg" xmlns:xlink="http://www.w3.org/1999/xlink" width="500" zoomAndPan="magnify" viewBox="0 0 375 374.999991" height="500" preserveAspectRatio="xMidYMid meet" version="1.0"><defs><g/><clipPath id="2dcb6a634e"><path d="M 150.191406 150.191406 L 224.441406 150.191406 L 224.441406 224.441406 L 150.191406 224.441406 Z M 150.191406 150.191406 " clip-rule="nonzero"/></clipPath></defs><rect x="-37.5" width="450" fill="#ffffff" y="-37.499999" height="449.999989" fill-opacity="1"/><rect x="-37.5" width="450" fill="#ffffff" y="-37.499999" height="449.999989" fill-opacity="1"/><rect x="-37.5" width="450" fill="#ffffff" y="-37.499999" height="449.999989" fill-opacity="1"/><g clip-path="url(#2dcb6a634e)"><path fill="#56ba9d" d="M 187.316406 224.441406 C 166.808594 224.441406 150.191406 207.714844 150.191406 187.316406 C 150.191406 166.921875 166.808594 150.191406 187.316406 150.191406 C 207.828125 150.191406 224.441406 166.808594 224.441406 187.316406 C 224.441406 207.828125 207.714844 224.441406 187.316406 224.441406 Z M 187.316406 152.484375 C 168.066406 152.484375 152.484375 168.066406 152.484375 187.316406 C 152.484375 206.566406 168.066406 222.152344 187.316406 222.152344 C 206.566406 222.152344 222.152344 206.566406 222.152344 187.316406 C 222.152344 168.066406 206.453125 152.484375 187.316406 152.484375 Z M 187.316406 152.484375 " fill-opacity="1" fill-rule="nonzero"/></g><g fill="#ffffff" fill-opacity="1"><g transform="translate(168.903194, 210.040388)"><g><path d="M 34.136719 -40.871094 C 34.136719 -41.464844 33.960938 -41.703125 33.304688 -41.703125 L 6.96875 -41.703125 C 6.375 -41.703125 6.136719 -41.464844 6.136719 -40.871094 L 6.136719 -0.835938 C 6.136719 -0.179688 6.316406 0 6.96875 0 L 9.234375 0 C 9.832031 0 10.007812 -0.238281 10.007812 -0.835938 L 10.007812 -19.363281 L 32.828125 -19.363281 C 33.421875 -19.363281 33.660156 -19.601562 33.660156 -20.195312 L 33.660156 -21.984375 C 33.660156 -22.578125 33.421875 -22.757812 32.828125 -22.757812 L 10.007812 -22.757812 L 10.007812 -38.25 L 33.304688 -38.25 C 33.898438 -38.25 34.136719 -38.488281 34.136719 -39.082031 Z M 34.136719 -40.871094 "/></g></g></g></svg>